<svg width="30" height="30" viewBox="0 0 30 30" fill="none" xmlns="http://www.w3.org/2000/svg">
<path d="M19.5132 16.3568C20.9844 20.0791 22.0769 23.9113 22.7869 27.8263C23.7997 27.2088 24.7463 26.4668 25.6067 25.6066C27.8415 23.3716 29.2837 20.5555 29.7932 17.499C27.5977 16.5908 25.1933 16.0881 22.6736 16.0881C21.5965 16.0881 20.5409 16.1811 19.5132 16.3568Z" fill="#A1A1A7"/>
<path d="M25.6194 4.4062C25.6151 4.40208 25.611 4.39751 25.6068 4.39339C22.7735 1.56029 19.0068 0 15.0002 0C13.4335 0 11.9035 0.239639 10.4517 0.699692C12.7787 3.61519 14.8258 6.72661 16.5802 10.015C19.8853 8.61168 22.9296 6.71036 25.6194 4.4062Z" fill="#A1A1A7"/>
<path d="M26.7975 5.73389C23.9758 8.15752 20.8228 10.1216 17.3916 11.5894C17.8974 12.6077 18.3751 13.6422 18.826 14.6921C20.0851 14.4525 21.3698 14.3302 22.6733 14.3302C25.1981 14.3302 27.6537 14.7843 29.984 15.6781C29.9941 15.4529 29.9998 15.227 29.9998 15.0002C29.9998 11.5962 28.8732 8.36603 26.7975 5.73389Z" fill="#A1A1A7"/>
<path d="M5.76709 26.8242C8.39305 28.8832 11.6107 29.9999 15 29.9999C17.1542 29.9999 19.2388 29.5481 21.1466 28.6907C20.4315 24.5475 19.2867 20.5498 17.7591 16.7451C12.4507 18.1939 8.07719 21.9297 5.76709 26.8242Z" fill="#A1A1A7"/>
<path d="M14.7164 15.9371C15.488 15.6108 16.2744 15.3343 17.0732 15.1068C16.6516 14.1413 16.2044 13.1897 15.7338 12.2515C11.6814 13.7561 7.42035 14.5185 3.04321 14.5185C2.02629 14.5185 1.01601 14.4767 0.0130462 14.3947C0.0050354 14.5959 0 14.7978 0 15.0003C0 19.0069 1.56029 22.7736 4.39339 25.6067C4.3943 25.6076 4.39545 25.6086 4.39636 25.6095C5.37621 23.6553 6.65771 21.8792 8.21915 20.3175C10.0962 18.4407 12.282 16.9669 14.7164 15.9371Z" fill="#A1A1A7"/>
<path d="M14.9117 10.6726C13.1317 7.37605 11.0491 4.26578 8.70192 1.37866C7.12012 2.11131 5.66283 3.12411 4.39345 4.39349C2.12386 6.66309 0.672058 9.53212 0.184082 12.6435C1.12708 12.7207 2.0806 12.7607 3.04327 12.7607C7.20938 12.7607 11.2068 12.0233 14.9117 10.6726Z" fill="#A1A1A7"/>
</svg>
