<svg width="72" height="72" viewBox="0 0 72 72" fill="none" xmlns="http://www.w3.org/2000/svg">
<ellipse cx="36" cy="36" rx="36" ry="36" fill="#364AFE"/>
<rect x="35.2651" width="2.93877" height="72" fill="#6F7DFE"/>
<rect y="38.2041" width="2.93878" height="72" transform="rotate(-90 0 38.2041)" fill="#6F7DFE"/>
<path d="M52.8675 36C52.8675 45.7545 50.847 54.5112 47.6517 60.7741C44.4148 67.1184 40.2138 70.5 36.0002 70.5C31.7865 70.5 27.5855 67.1184 24.3486 60.7741C21.1533 54.5112 19.1328 45.7545 19.1328 36C19.1328 26.2455 21.1533 17.4888 24.3486 11.2259C27.5855 4.88162 31.7865 1.5 36.0002 1.5C40.2138 1.5 44.4148 4.88162 47.6517 11.2259C50.847 17.4888 52.8675 26.2455 52.8675 36Z" stroke="#6F7DFE" stroke-width="3"/>
<mask id="path-5-inside-1" fill="white">
<path fill-rule="evenodd" clip-rule="evenodd" d="M66.5996 16.3414C60.309 20.1958 48.8253 22.7755 35.7014 22.7755C23.2928 22.7755 12.3505 20.4693 5.87744 16.9601C12.2363 6.77573 23.5449 0 36.4361 0C49.0644 0 60.174 6.50224 66.5996 16.3414Z"/>
</mask>
<path d="M66.5996 16.3414L68.1669 18.8994L70.7997 17.2863L69.1114 14.701L66.5996 16.3414ZM5.87744 16.9601L3.33274 15.3712L1.64325 18.0771L4.44764 19.5974L5.87744 16.9601ZM65.0323 13.7834C59.4178 17.2235 48.5747 19.7755 35.7014 19.7755V25.7755C49.0759 25.7755 61.2001 23.1681 68.1669 18.8994L65.0323 13.7834ZM35.7014 19.7755C23.5569 19.7755 13.1728 17.5026 7.30724 14.3227L4.44764 19.5974C11.5281 23.436 23.0286 25.7755 35.7014 25.7755V19.7755ZM8.42214 18.5489C14.256 9.2055 24.6225 3 36.4361 3V-3C22.4673 -3 10.2167 4.34597 3.33274 15.3712L8.42214 18.5489ZM36.4361 3C48.009 3 58.1926 8.95489 64.0878 17.9818L69.1114 14.701C62.1553 4.0496 50.1198 -3 36.4361 -3V3Z" fill="#6F7DFE" mask="url(#path-5-inside-1)"/>
<mask id="path-7-inside-2" fill="white">
<path fill-rule="evenodd" clip-rule="evenodd" d="M66.5925 54.879C60.2217 64.7207 48.9157 71.2653 36.0302 71.2653C23.4164 71.2653 12.3162 64.9938 5.87744 55.4973C12.8346 51.249 24.0788 48.4897 36.7658 48.4897C48.8264 48.4897 59.583 50.9833 66.5925 54.879Z"/>
</mask>
<path d="M66.5925 54.879L69.1109 56.5093L70.8546 53.8156L68.0499 52.2568L66.5925 54.879ZM5.87744 55.4973L4.31399 52.9369L1.62868 54.5766L3.39436 57.1808L5.87744 55.4973ZM64.0741 53.2488C58.249 62.2476 47.885 68.2653 36.0302 68.2653V74.2653C49.9464 74.2653 62.1945 67.1939 69.1109 56.5093L64.0741 53.2488ZM36.0302 68.2653C24.4255 68.2653 14.2491 62.4989 8.36052 53.8137L3.39436 57.1808C10.3833 67.4888 22.4073 74.2653 36.0302 74.2653V68.2653ZM7.44089 58.0577C13.7766 54.1889 24.4222 51.4897 36.7658 51.4897V45.4897C23.7353 45.4897 11.8926 48.3091 4.31399 52.9369L7.44089 58.0577ZM36.7658 51.4897C48.4856 51.4897 58.6991 53.9242 65.1351 57.5012L68.0499 52.2568C60.467 48.0423 49.1671 45.4897 36.7658 45.4897V51.4897Z" fill="#6F7DFE" mask="url(#path-7-inside-2)"/>
</svg>
