<svg width="15" height="15" viewBox="0 0 15 15" fill="none" xmlns="http://www.w3.org/2000/svg">
<path d="M11.8291 6.709L11.1701 5.959C10.9881 5.752 10.6731 5.732 10.4651 5.913L8.50009 7.635V0.5C8.50009 0.224 8.27609 0 8.00009 0H7.00009C6.72409 0 6.50009 0.224 6.50009 0.5V7.635L4.53509 5.913C4.32809 5.732 4.01309 5.752 3.83009 5.959L3.17109 6.708C2.98809 6.916 3.00909 7.233 3.21709 7.415L7.17109 10.876C7.36009 11.041 7.64109 11.041 7.83009 10.876L11.7831 7.415C11.9911 7.233 12.0121 6.916 11.8291 6.709Z" fill="#A1A1A7"/>
<path d="M13 13H2C1.724 13 1.5 13.224 1.5 13.5V14.5C1.5 14.776 1.724 15 2 15H13C13.276 15 13.5 14.776 13.5 14.5V13.5C13.5 13.224 13.276 13 13 13Z" fill="#A1A1A7"/>
</svg>
