<svg width="15" height="15" viewBox="0 0 15 15" fill="none" xmlns="http://www.w3.org/2000/svg">
<path d="M0.313213 2.78777C2.3719 4.53126 5.98427 7.59858 7.04599 8.55498C7.18852 8.68406 7.34139 8.74969 7.50009 8.74969C7.65847 8.74969 7.81107 8.68468 7.95328 8.55621C9.01591 7.59888 12.6283 4.53126 14.687 2.78777C14.8152 2.67943 14.8347 2.489 14.7309 2.35655C14.4911 2.05049 14.1334 1.875 13.7501 1.875H1.2501C0.866806 1.875 0.509121 2.05049 0.269267 2.35658C0.165498 2.489 0.185039 2.67943 0.313213 2.78777Z" fill="white"/>
<path d="M14.8187 3.7325C14.708 3.68094 14.5777 3.69893 14.4855 3.77768C12.2024 5.71309 9.28863 8.19389 8.37188 9.01997C7.85733 9.48445 7.14322 9.48445 6.62748 9.01936C5.65031 8.13893 2.3782 5.35725 0.514512 3.77765C0.421729 3.6989 0.291123 3.68153 0.18126 3.73247C0.0708105 3.78377 0 3.89425 0 4.01601V11.8749C0 12.5643 0.560596 13.1249 1.25001 13.1249H13.75C14.4394 13.1249 15 12.5643 15 11.8749V4.01601C15 3.89425 14.9292 3.78348 14.8187 3.7325Z" fill="white"/>
</svg>
