<svg width="20" height="20" viewBox="0 0 20 20" fill="none" xmlns="http://www.w3.org/2000/svg">
    <path d="M10 0C4.48605 0 0 4.48605 0 10C0 15.514 4.48605 20 10 20C15.514 20 20 15.514 20 10C20 4.48605 15.514 0 10 0ZM10 17.7198C5.74334 17.7198 2.28019 14.2567 2.28019 10C2.28019 5.74334 5.74334 2.28019 10 2.28019C14.2567 2.28019 17.7198 5.74334 17.7198 10C17.7198 14.2567 14.2567 17.7198 10 17.7198ZM10.0844 3.73586C6.61118 3.73586 3.78557 6.56147 3.78557 10.0347C3.78557 13.5074 6.61118 16.3335 10.0844 16.3335C13.5571 16.3335 16.3832 13.5078 16.3832 10.0347C16.3832 6.56147 13.5571 3.73586 10.0844 3.73586ZM12.4562 6.79816C12.5036 6.98878 12.5365 7.18488 12.5365 7.39009C12.5365 8.74407 11.4393 9.8413 10.0853 9.8413C10.0716 9.8413 10.0588 9.83765 10.0447 9.83719C8.71032 9.8153 7.63408 8.72993 7.63408 7.39009C7.63408 7.18397 7.66737 6.98696 7.71525 6.79588C7.97884 5.74471 8.91554 4.96169 10.0451 4.943C10.0588 4.943 10.0716 4.93889 10.0857 4.93889C11.234 4.93889 12.1903 5.73194 12.4562 6.79816Z" class="eye"/>
</svg>
