<svg width="384" height="343" viewBox="0 0 384 343" fill="none" xmlns="http://www.w3.org/2000/svg">
<g clip-path="url(#clip0)">
<path d="M354.558 168.328C354.13 169.289 353.704 170.236 353.278 171.171C352.615 172.623 351.959 174.047 351.313 175.442C351.025 176.061 350.738 176.668 350.457 177.275C347.286 184.024 344.325 189.993 341.81 194.902C339.528 199.35 336.139 203.077 331.999 205.693C327.86 208.308 323.121 209.716 318.279 209.768L262.356 210.402H261.766L256.972 210.456L252.872 210.502L240.297 210.644H239.788L233.386 210.717H233.191L193.733 211.162L158.513 211.546L154.416 211.593L128.971 211.881H128.942L112.439 212.065H112.262L60.0825 212.653L44.4727 212.829C43.1436 212.845 41.8148 212.776 40.4938 212.622C40.0439 212.568 39.594 212.507 39.1478 212.434C31.8677 211.263 25.1924 207.53 20.234 201.855C13.5188 194.161 8.63268 185.184 5.35069 175.442C4.87621 174.036 4.4337 172.613 4.02314 171.171C-7.33844 131.164 6.51229 79.5486 31.4407 45.0078C32.4855 43.5635 33.5475 42.155 34.6268 40.7824L34.6526 40.7517C42.3192 30.9487 50.915 22.7591 60.0714 16.9357C76.297 6.59885 94.2741 3.68716 111.956 12.3646C126.917 19.7091 140.886 23.1624 154.427 24.0997C155.795 24.1919 157.163 24.261 158.524 24.3033C189.585 25.3212 218.695 13.663 252.879 6.13789C254.24 5.83827 255.604 5.54249 256.98 5.26208C281.366 0.206958 308.418 -2.45889 340.589 3.14554C343.932 3.7143 347.23 4.53595 350.457 5.60395C351.876 6.08027 353.243 6.59244 354.558 7.14047C369.913 13.6476 378.288 25.6708 381.846 40.7363C382.183 42.1345 382.475 43.5571 382.72 45.0039C389.03 81.2426 370.551 132.647 354.558 168.328Z" fill="url(#paint0_linear)"/>
<path opacity="0.1" d="M183.282 171.171C183.134 172.608 182.904 174.034 182.593 175.443H217.146V171.171H183.282ZM154.427 195.298L158.524 195.264V184.712C157.119 184.646 155.751 184.581 154.427 184.512V195.298ZM68.5346 171.171V175.443H141.734V171.171H68.5346ZM381.865 40.7521H354.576V7.14472C353.261 6.58902 351.894 6.07685 350.476 5.60821V40.7521H256.98V5.25098C255.604 5.53139 254.24 5.82717 252.879 6.12679V40.7521H158.524V24.2922C157.163 24.2499 155.795 24.1808 154.427 24.0886V40.7521H60.0715V16.9361C50.9151 22.7595 42.3192 30.9491 34.6527 40.7521H34.6268V40.7828C33.5451 42.1657 32.4831 43.5741 31.4407 45.0082H34.6268V171.171H4.01953C4.42763 172.613 4.87014 174.037 5.34708 175.443H34.6231V211.405C36.0961 211.874 37.5997 212.232 39.1221 212.476C39.5683 212.549 40.0182 212.611 40.468 212.665C41.789 212.819 43.1178 212.888 44.447 212.872L60.0567 212.695V175.435H154.427V211.624L158.524 211.578V175.443H252.879V210.537L256.98 210.49V175.443H350.457V177.275C350.738 176.668 351.025 176.061 351.313 175.443C351.959 174.047 352.615 172.623 353.278 171.171C353.704 170.239 354.13 169.292 354.558 168.329V45.0236H382.739C382.491 43.5664 382.199 42.1426 381.865 40.7521ZM60.0715 171.171V45.0082H154.427V171.171H60.0715ZM158.531 171.171V45.0082H252.879V171.171H158.531ZM350.465 171.171H256.98V45.0082H350.457L350.465 171.171Z" fill="black"/>
</g>
<path fill-rule="evenodd" clip-rule="evenodd" d="M144.737 58.7872C144.737 58.7872 134.415 63.2597 147.049 95.5872C159.678 127.909 166.176 123.684 166.176 123.684L174.546 122.492L189.187 101.288L179.872 93.437L178.166 94.2549C178.166 94.2549 175.842 93.3431 175.415 91.1013C174.986 88.8578 170.705 79.4657 165.695 60.5054C158.017 31.456 146.719 57.9153 144.737 58.7872Z" fill="#0E1554"/>
<path fill-rule="evenodd" clip-rule="evenodd" d="M186.515 101.902C186.515 101.902 204.119 111.917 214.823 113.157C221.993 113.985 207.185 122.307 192.452 123.964C177.73 125.62 172.013 124.94 168.831 119.545C165.649 114.149 186.515 101.902 186.515 101.902Z" fill="#FF9BA0"/>
<path fill-rule="evenodd" clip-rule="evenodd" d="M168.507 97.2299L173.546 93.3337L175.649 91.906C176.384 93.5781 178.158 94.2778 178.158 94.2778L173.869 96.4063L169.28 99.9198L164.767 106.558L168.507 97.2299Z" fill="#0E1554"/>
<path fill-rule="evenodd" clip-rule="evenodd" d="M161.472 136.901L122.414 136.02L106.174 79.4114C106.174 79.4114 95.6413 45.1782 115.829 44.7378C136.018 44.3013 159.486 48.1869 159.486 48.1869C159.486 48.1869 166.22 56.8144 161.472 136.901Z" fill="#0E1554"/>
<path fill-rule="evenodd" clip-rule="evenodd" d="M139.698 51.9229C139.698 51.9229 157.39 87.5105 152.368 126.898C151.974 129.999 148.8 132.22 148.8 132.22L144.446 127.782C144.446 127.782 144.798 83.2051 139.698 51.9229Z" fill="#364AFE"/>
<path fill-rule="evenodd" clip-rule="evenodd" d="M139.196 51.0337L138.235 58.0502L125.831 47.3236L127.267 44.7036L139.196 51.0337Z" fill="#0E1554"/>
<path fill-rule="evenodd" clip-rule="evenodd" d="M142.567 46.9255L144.486 48.6148L144.594 56.0561L139.698 51.6113L142.567 46.9255Z" fill="#0E1554"/>
<path fill-rule="evenodd" clip-rule="evenodd" d="M155.369 19.1589C155.344 19.6887 157.15 24.3428 157.481 25.2041C157.816 26.066 158.279 27.1544 158.127 27.4599C157.973 27.7642 157.123 28.6432 156.745 28.9631C156.364 29.2808 154.919 30.6102 154.673 28.3889C154.43 26.1649 155.369 19.1589 155.369 19.1589Z" fill="#FF9BA0"/>
<path fill-rule="evenodd" clip-rule="evenodd" d="M134.167 16.3858C132.579 16.3102 131.237 17.5869 131.167 19.234C131.096 20.8911 132.321 22.2855 133.91 22.3654" fill="#E9D6B8"/>
<path fill-rule="evenodd" clip-rule="evenodd" d="M150.366 327.775H160.428V311.813H150.366V327.775Z" fill="#0E1554"/>
<path fill-rule="evenodd" clip-rule="evenodd" d="M78.8926 327.775H87.0346V311.813H78.8926V327.775Z" fill="#0E1554"/>
<path fill-rule="evenodd" clip-rule="evenodd" d="M151.022 332.104H158.373V329.781L161.564 332.104H180.093C180.093 332.104 179.771 328.947 167.317 328.449C164.119 328.322 161.883 323.794 161.883 323.794C161.883 323.794 160.291 322.297 157.893 325.786C157.272 326.696 150.547 324.955 150.547 324.955C150.547 324.955 149.91 329.611 151.022 332.104Z" fill="#081832"/>
<path fill-rule="evenodd" clip-rule="evenodd" d="M160.266 135.221L161.142 221.677L143.589 231.769C143.589 231.769 133.054 211.144 131.74 184.811C130.421 158.483 160.266 135.221 160.266 135.221Z" fill="black"/>
<path fill-rule="evenodd" clip-rule="evenodd" d="M159.901 135.633L121.277 230.43L114.256 240.524L87.3056 323.723L77.2813 319.808C77.2813 319.808 73.8837 272.999 84.4163 254.564C94.9484 236.136 100.211 226.038 100.211 226.038L123.474 133L159.901 135.633Z" fill="#2B2D38"/>
<path fill-rule="evenodd" clip-rule="evenodd" d="M149.381 322.506C146.204 305.549 139.449 274.01 139.208 263.105C138.77 242.92 141.844 228.874 141.844 228.874L161.153 221.851L160.999 322.506H149.381Z" fill="black"/>
<path fill-rule="evenodd" clip-rule="evenodd" d="M88.0871 334.946H83.1128L81.5447 333.307L80.87 329.313L79.2901 330.958L74.0918 325.551C74.9969 322.965 78.6106 320.143 78.6106 320.143C78.6106 320.143 82.1831 326.324 83.2376 326.138C87.3073 325.433 87.4199 327.669 87.4199 327.669C87.4199 327.669 85.9323 332.493 88.0871 334.946Z" fill="#081832"/>
<path fill-rule="evenodd" clip-rule="evenodd" d="M83.1592 329.028C84.1155 330.138 85.441 331.246 86.9984 331.306C99.4523 331.805 99.7707 334.965 99.7707 334.965H83.1592V329.028Z" fill="#081832"/>
<path fill-rule="evenodd" clip-rule="evenodd" d="M207.269 48.65L203.568 45.3725C203.568 45.3725 201.739 43.9025 200.213 41.4547C198.688 39.0024 199.559 36.6267 201.532 34.667C203.509 32.7112 204.993 32.4868 204.993 32.4868C204.993 32.4868 208.181 33.9579 207.779 36.9266C207.366 39.8915 210.245 46.4431 209.155 46.9174C208.061 47.3888 207.269 48.65 207.269 48.65Z" fill="#FF9BA0"/>
<path fill-rule="evenodd" clip-rule="evenodd" d="M206.104 33.0843L202.421 28.9499L198.827 25.2676L198.37 26.346L200.568 29.3297L201.743 35.5665L203.196 34.7369L206.104 33.0843Z" fill="#FF9BA0"/>
<path fill-rule="evenodd" clip-rule="evenodd" d="M199.313 30.7548L195.353 28.5996L194.636 29.5076L198.172 32.3658L200.734 36.5635L203.208 34.6309L199.313 30.7548Z" fill="#FF9BA0"/>
<path fill-rule="evenodd" clip-rule="evenodd" d="M194.103 31.376L197.362 32.8859L199.658 33.5784L201.239 35.773L199.764 37.9576L198.131 35.5359L194.164 32.7865L194.103 31.376Z" fill="#FF9BA0"/>
<path fill-rule="evenodd" clip-rule="evenodd" d="M193.569 34.708L199.799 36.3701L200.82 38.0061L199.893 39.5632L197.365 37.7401L194.014 35.7759L193.569 34.708Z" fill="#FF9BA0"/>
<path fill-rule="evenodd" clip-rule="evenodd" d="M210.981 48.0702C208.962 45.9366 209.408 42.7685 209.408 42.7685C209.408 42.7685 210.322 34.8447 209.206 33.538C208.088 32.2308 207.391 28.845 207.391 28.845C207.391 28.845 206.436 27.5816 206.031 30.7881C205.768 32.8811 206.147 34.7569 206.147 34.7569C206.147 34.7569 204.089 39.0812 204.246 40.4828C204.559 43.3716 209.557 48.4506 209.557 48.4506C209.557 48.4506 211.239 48.3434 210.981 48.0702Z" fill="#FF9BA0"/>
<path fill-rule="evenodd" clip-rule="evenodd" d="M156.065 7.41183C156.065 7.41183 158.823 36.4695 152.527 39.8819C152.252 40.0252 147.768 40.2279 145.423 42.4225C143.216 44.495 143.119 46.8279 142.338 47.7481C142.085 48.0474 141.176 50.0049 140.606 50.5258C138.229 52.6915 136.303 49.9232 134.955 49.288C131.687 47.7381 128.345 46.7196 128.502 45.2425C128.676 43.6242 133.384 33.0726 133.212 30.898C132.712 24.529 126.107 12.7629 136.785 5.60537C139.903 3.51737 155.308 5.53985 156.065 7.41183Z" fill="#FF9BA0"/>
<path fill-rule="evenodd" clip-rule="evenodd" d="M136.305 4.40035C141.488 0.177144 151.906 1.32832 159.006 8.40921C159.006 8.40921 158.712 10.1346 156.249 11.5307C156.249 11.5307 152.118 5.97135 145.385 6.75491C138.321 7.58178 143.175 11.148 141.529 12.9362C140.145 14.44 138.848 15.7167 138.848 15.7167L137.777 19.8055L135.925 20.0171C135.925 20.0171 134.937 15.62 133.997 16.9145C132.856 18.4899 133.357 21.7852 133.383 22.2544C133.411 22.7259 133.473 23.5028 133.254 23.6339C133.08 23.7344 133.58 26.2633 133.049 30.5376C132.18 30.5509 131.106 29.2959 130.587 26.5854C129.418 20.4891 129.983 9.55483 136.305 4.40035Z" fill="black"/>
<path fill-rule="evenodd" clip-rule="evenodd" d="M153.032 27.138C153.032 27.138 156.386 26.2878 156.733 26.3867C157.081 26.4816 157.935 26.5977 157.955 26.9514C157.977 27.304 157.451 28.2081 155.783 29.1727C155.377 29.4048 155.617 28.5208 153.032 27.138Z" fill="#FF9BA0"/>
<path fill-rule="evenodd" clip-rule="evenodd" d="M130.63 109.676L131.624 111.508C131.654 111.597 131.697 111.677 131.734 111.751L130.743 109.918C130.699 109.846 130.664 109.762 130.63 109.676Z" fill="#9EA4A7"/>
<path fill-rule="evenodd" clip-rule="evenodd" d="M89.5177 143.256L90.5066 145.09C89.6622 145.511 88.851 145.989 88.076 146.5L87.085 144.666C87.8568 144.154 88.6691 143.681 89.5177 143.256Z" fill="#A1A9AC"/>
<mask id="mask0" mask-type="alpha" maskUnits="userSpaceOnUse" x="133" y="102" width="33" height="26">
<path d="M164.445 104.318C165.03 107.561 163.536 111.277 160.729 114.457C158.595 116.872 155.7 118.979 152.379 120.327C147.881 122.157 143.622 122.186 140.625 120.782C139.746 120.381 138.511 120.387 137.212 120.917C136.231 121.319 135.377 121.94 134.745 122.651C134.026 123.466 133.598 124.401 133.601 125.26L134.594 127.096C134.592 126.233 135.022 125.298 135.738 124.486C136.373 123.771 137.225 123.151 138.205 122.749C139.505 122.219 140.744 122.216 141.619 122.618C144.618 124.019 148.879 123.99 153.376 122.165C156.692 120.813 159.59 118.708 161.722 116.288C164.528 113.11 166.021 109.396 165.438 106.15C165.3 105.379 165.052 104.679 164.711 104.043C164.648 103.925 164.578 103.803 164.51 103.679C164.246 103.194 163.981 102.701 163.717 102.213C164.059 102.845 164.308 103.548 164.445 104.318Z" fill="white"/>
</mask>
<g mask="url(#mask0)">
<path fill-rule="evenodd" clip-rule="evenodd" d="M163.717 102.213L164.71 104.043C164.981 104.543 165.192 105.078 165.332 105.661L164.338 103.829C164.198 103.246 163.984 102.712 163.717 102.213Z" fill="#9EA4A7"/>
</g>
<mask id="mask1" mask-type="alpha" maskUnits="userSpaceOnUse" x="87" y="165" width="2" height="4">
<path d="M87.9561 166.266C87.9881 166.45 87.9887 166.635 87.986 166.824L88.9802 168.661C88.9802 168.473 88.9802 168.282 88.9493 168.095C88.9103 167.877 88.8346 167.677 88.7381 167.489L87.7417 165.656C87.8409 165.838 87.9113 166.046 87.9561 166.266Z" fill="white"/>
</mask>
<g mask="url(#mask1)">
<path fill-rule="evenodd" clip-rule="evenodd" d="M87.7417 165.656L88.7381 167.489C88.8154 167.634 88.8757 167.787 88.9146 167.955L87.9257 166.125C87.8814 165.953 87.8206 165.799 87.7417 165.656Z" fill="#9EA4A7"/>
</g>
<mask id="mask2" mask-type="alpha" maskUnits="userSpaceOnUse" x="87" y="165" width="2" height="4">
<path d="M87.9561 166.266C87.9881 166.45 87.9887 166.635 87.986 166.824L88.9802 168.661C88.9802 168.473 88.9802 168.282 88.9493 168.095C88.9103 167.877 88.8346 167.677 88.7381 167.489L87.7417 165.656C87.8409 165.838 87.9113 166.046 87.9561 166.266Z" fill="white"/>
</mask>
<g mask="url(#mask2)">
<path fill-rule="evenodd" clip-rule="evenodd" d="M87.9258 166.125L88.9147 167.954C88.9291 168 88.9413 168.049 88.9499 168.095C88.9765 168.253 88.9808 168.409 88.9808 168.567L87.9861 166.733C87.9893 166.575 87.9829 166.419 87.9567 166.266C87.9428 166.217 87.9354 166.171 87.9258 166.125Z" fill="#A1A9AC"/>
</g>
<mask id="mask3" mask-type="alpha" maskUnits="userSpaceOnUse" x="87" y="165" width="2" height="4">
<path d="M87.9561 166.266C87.9881 166.45 87.9887 166.635 87.986 166.824L88.9802 168.661C88.9802 168.473 88.9802 168.282 88.9493 168.095C88.9103 167.877 88.8346 167.677 88.7381 167.489L87.7417 165.656C87.8409 165.838 87.9113 166.046 87.9561 166.266Z" fill="white"/>
</mask>
<g mask="url(#mask3)">
<path fill-rule="evenodd" clip-rule="evenodd" d="M87.9863 166.732L88.9805 168.568V168.661L87.9863 166.824V166.732Z" fill="#A6AEB1"/>
</g>
<mask id="mask4" mask-type="alpha" maskUnits="userSpaceOnUse" x="85" y="169" width="3" height="3">
<path d="M85.9082 170.123L86.8987 171.952C87.0736 171.826 87.2256 171.691 87.4305 171.504L86.4357 169.671C86.2336 169.861 86.0778 169.987 85.9082 170.123Z" fill="white"/>
</mask>
<g mask="url(#mask4)">
<path fill-rule="evenodd" clip-rule="evenodd" d="M86.4361 169.67L87.4314 171.505C87.4127 171.521 87.3935 171.539 87.3717 171.558L86.3774 169.727C86.3993 169.708 86.4174 169.688 86.4361 169.67Z" fill="#AAB3B6"/>
</g>
<path fill-rule="evenodd" clip-rule="evenodd" d="M102.717 162.129L103.712 163.959C102.946 163.333 102.879 163.251 102.823 163.155L101.828 161.321C101.885 161.415 101.952 161.499 102.717 162.129Z" fill="#959B9D"/>
<path fill-rule="evenodd" clip-rule="evenodd" d="M104.276 162.2L105.269 164.032C105.024 164.02 104.859 164.005 104.705 163.977C104.384 163.915 104.12 163.829 103.89 163.706L102.895 161.877C103.124 161.99 103.385 162.082 103.714 162.147C103.867 162.172 104.028 162.19 104.276 162.2Z" fill="#F5A623"/>
<path fill-rule="evenodd" clip-rule="evenodd" d="M105.033 162.432L106.028 164.267C105.843 164.283 105.658 164.288 105.488 164.283L104.495 162.451C104.666 162.456 104.852 162.451 105.033 162.432Z" fill="#F5A623"/>
<path fill-rule="evenodd" clip-rule="evenodd" d="M112.121 177.664C112.121 179.104 110.831 180.272 109.239 180.272H91.7811C90.1896 180.272 88.8999 179.104 88.8999 177.664V167.558C88.8999 166.12 90.1896 164.953 91.7811 164.953H109.239C110.831 164.953 112.121 166.12 112.121 167.558V177.664ZM112.846 160.921H88.0906C86.3998 160.921 85.0298 163.069 85.0298 164.55V180.238C85.0298 181.72 86.3998 182.919 88.0906 182.919H112.846C114.536 182.919 115.906 181.72 115.906 180.238V164.55C115.906 163.069 114.536 160.921 112.846 160.921Z" fill="#657786"/>
<path fill-rule="evenodd" clip-rule="evenodd" d="M57.6689 226.946H142.67V170.654H57.6689V226.946Z" fill="#364AFE"/>
<path fill-rule="evenodd" clip-rule="evenodd" d="M56.0039 170.103V190.575L100.169 195.134L144.334 190.94V170.103H56.0039Z" fill="#6F7DFE"/>
<path fill-rule="evenodd" clip-rule="evenodd" d="M96.8076 200.27H105.807V189.998H96.8076V200.27Z" fill="#D0D2D3"/>
<path fill-rule="evenodd" clip-rule="evenodd" d="M103.031 193.97C103.031 194.972 102.26 195.784 101.31 195.784C100.358 195.784 99.5869 194.972 99.5869 193.97C99.5869 192.967 100.358 192.153 101.31 192.153C102.26 192.153 103.031 192.967 103.031 193.97Z" fill="#221F1F"/>
<path fill-rule="evenodd" clip-rule="evenodd" d="M100.487 197.674H102.172V194.161H100.487V197.674Z" fill="#221F1F"/>
<path fill-rule="evenodd" clip-rule="evenodd" d="M82.9553 116.195L99.9018 165.225C99.9018 165.225 96.214 166.397 94.072 164.415C88.2613 159.039 78.149 144.403 74.6186 136.384C69.7888 125.413 67.1582 113.563 67.1582 113.563L82.9553 116.195Z" fill="#FF9BA0"/>
<path fill-rule="evenodd" clip-rule="evenodd" d="M94.527 165.262C95.5911 167.317 102.362 169.328 102.362 169.328L107.19 163.681H104.117L101.923 158.544L95.3377 161.178C95.3377 161.178 93.8784 164.005 94.527 165.262Z" fill="#FF9BA0"/>
<path fill-rule="evenodd" clip-rule="evenodd" d="M108.629 77.3485L85.8086 113.771L82.7347 114.213L83.6132 117.284L67.0832 115.963L63.4248 101.045L95.4611 51.8948C95.4611 51.8948 98.8817 48.6612 104.994 46.4644C109.325 44.9061 119.205 62.9596 112.545 71.9686C110.564 74.6485 109.03 76.6438 108.629 77.3485Z" fill="#0E1554"/>
<path fill-rule="evenodd" clip-rule="evenodd" d="M68.7583 106.899C68.7583 106.899 78.9762 112.008 84.3879 114.468L83.0491 114.662L83.9271 117.734L78.2172 117.231L70.208 115.261L69.7696 111.735H72.2509L68.7583 106.899Z" fill="#0E1554"/>
<path fill-rule="evenodd" clip-rule="evenodd" d="M285.907 7.92537C282.89 5.60645 282.373 3.73527 284.358 2.31183C287.334 0.176668 308.179 1.46005 307.574 9.19733C306.969 16.9346 314.563 26.1407 297.985 34.9741C286.932 40.8631 282.906 31.8468 285.907 7.92537Z" fill="black"/>
<path fill-rule="evenodd" clip-rule="evenodd" d="M283.436 5.27588L278.133 12.4156L278.183 15.1134L273.576 21.6062L275.626 25.3213L274.666 36.6581C274.666 36.6581 273.865 42.7578 279.36 40.532L284.859 38.3058C284.859 38.3058 289.492 53.5165 286.29 56.2259C283.088 58.9348 280.821 62.0174 282.124 63.6967C283.31 65.2282 286.451 64.1065 289.677 63.7361C295.42 63.0747 299.23 64.2059 301.689 64.3281C303.471 64.418 301.005 63.3024 300.516 59.4779C300.032 55.6901 297.01 33.3029 297.01 33.3029C297.01 33.3029 297.984 33.7077 299.344 33.0974C300.704 32.4899 306.814 27.607 304.78 24.7915C302.746 21.9749 298.297 23.2266 296.825 25.9021C295.349 28.5766 292.653 25.7189 293.309 19.8891C293.964 14.0577 305.152 10.6469 292.394 8.85214C283.838 7.64765 283.436 5.27588 283.436 5.27588Z" fill="#FF9BA0"/>
<path fill-rule="evenodd" clip-rule="evenodd" d="M284.243 334.994H274.181V319.032H284.243V334.994Z" fill="#0E1554"/>
<path fill-rule="evenodd" clip-rule="evenodd" d="M355.716 334.994H347.574V319.032H355.716V334.994Z" fill="#0E1554"/>
<path fill-rule="evenodd" clip-rule="evenodd" d="M283.586 339.323H276.236V337L273.045 339.323H254.516C254.516 339.323 254.838 336.166 267.292 335.668C270.49 335.541 272.726 331.013 272.726 331.013C272.726 331.013 274.318 329.516 276.716 333.005C277.337 333.915 284.062 332.174 284.062 332.174C284.062 332.174 284.699 336.83 283.586 339.323Z" fill="#081832"/>
<path fill-rule="evenodd" clip-rule="evenodd" d="M274.342 142.44L273.467 228.895L291.019 238.987C291.019 238.987 301.554 218.363 302.869 192.03C304.187 165.702 274.342 142.44 274.342 142.44Z" fill="black"/>
<path fill-rule="evenodd" clip-rule="evenodd" d="M274.707 142.852L313.331 237.649L320.352 247.743L347.303 330.942L357.327 327.028C357.327 327.028 360.725 280.219 350.192 261.784C339.66 243.355 334.398 233.257 334.398 233.257L311.134 140.219L274.707 142.852Z" fill="#2B2D38"/>
<path fill-rule="evenodd" clip-rule="evenodd" d="M285.229 329.725C288.405 312.768 295.161 281.229 295.402 270.324C295.839 250.139 292.765 236.093 292.765 236.093L273.456 229.07L273.61 329.725H285.229Z" fill="black"/>
<path fill-rule="evenodd" clip-rule="evenodd" d="M346.521 342.165H351.496L353.064 340.526L353.738 336.532L355.318 338.176L360.517 332.77C359.611 330.184 355.998 327.362 355.998 327.362C355.998 327.362 352.425 333.542 351.371 333.357C347.301 332.652 347.189 334.888 347.189 334.888C347.189 334.888 348.676 339.711 346.521 342.165Z" fill="#081832"/>
<path fill-rule="evenodd" clip-rule="evenodd" d="M351.449 336.247C350.493 337.357 349.167 338.465 347.61 338.525C335.156 339.025 334.838 342.184 334.838 342.184H351.449V336.247Z" fill="#081832"/>
<path fill-rule="evenodd" clip-rule="evenodd" d="M213.177 114.02L224.967 106.899L232.566 107.806C232.566 107.806 233.428 109.66 230.833 111.015C228.239 112.368 224.967 112.782 224.967 112.782L219.915 120.623C219.915 120.623 224.851 123.663 226.158 122.997C227.466 122.327 232.599 119.797 232.599 119.797C232.599 119.797 229.626 126.4 226.455 126.4C223.285 126.4 219.915 126.4 217.537 125.988C215.158 125.575 214.364 118.559 211.988 117.322C209.609 116.082 213.177 114.02 213.177 114.02Z" fill="#FF9BA0"/>
<path fill-rule="evenodd" clip-rule="evenodd" d="M236.528 68.7287L207.216 40.8167C207.216 40.8167 205.267 43.2684 206.003 45.5113C208.012 51.5838 216.16 60.6616 220.725 65.8044C226.967 72.8347 234.968 78.4779 234.968 78.4779L236.528 68.7287Z" fill="#FF9BA0"/>
<path fill-rule="evenodd" clip-rule="evenodd" d="M258.134 64.5149L245.358 67.0311L234.305 65.1425L230.906 78.763L240.629 82.4393L285.757 83.2087C285.757 83.2087 292.48 72.3299 295.771 59.1228C298.157 49.5513 274.421 60.7071 271.72 61.1053L258.134 64.5149Z" fill="#0E1554"/>
<path fill-rule="evenodd" clip-rule="evenodd" d="M268.712 114.674L231.973 115.805C231.973 115.805 259.198 132.866 269.085 124.264C278.978 115.657 268.712 114.674 268.712 114.674Z" fill="#FF9BA0"/>
<path fill-rule="evenodd" clip-rule="evenodd" d="M287.841 53.2318L299.196 49.1465L313.769 60.4318C313.769 60.4318 319.494 77.0925 318.082 83.9516C316.669 90.8107 311.641 142.15 311.641 142.15L272.864 142.99L267.175 83.9929C271.379 67.0496 277.758 56.4904 286.312 52.3155L287.841 53.2318Z" fill="#0E1554"/>
<path fill-rule="evenodd" clip-rule="evenodd" d="M220.668 122.24L224.182 123.525L238.615 118.574L232.972 108.01L231.081 111.122L226.039 110.911L219.705 120.135L220.668 122.24Z" fill="#FF9BA0"/>
<path fill-rule="evenodd" clip-rule="evenodd" d="M287.155 54.5797L286.377 62.1293L302.186 52.8887L300.362 47.4805L287.155 54.5797Z" fill="#0E1554"/>
<path fill-rule="evenodd" clip-rule="evenodd" d="M286.3 52.4783L287.077 54.6351L283.969 61.6455L283.71 55.4448L286.3 52.4783Z" fill="#0E1554"/>
<path fill-rule="evenodd" clip-rule="evenodd" d="M287.144 55.2546C287.144 55.2546 269.451 90.8423 274.474 130.23C274.868 133.33 278.041 135.552 278.041 135.552L282.396 131.114C282.396 131.114 282.043 86.5369 287.144 55.2546Z" fill="#364AFE"/>
<path fill-rule="evenodd" clip-rule="evenodd" d="M314.563 78.6702C307.556 101.286 292.92 119.918 290.163 123.646C287.408 127.377 278.204 135.128 271.365 133.423C267.049 132.347 266.643 129.543 266.643 129.543L269.159 114.952L268.763 114.907L271.286 114.411C271.286 114.411 280.18 99.7202 287.61 85.4124C295.044 71.1095 310.103 60.8083 310.103 60.8083C310.103 60.8083 318.681 65.4036 314.563 78.6702Z" fill="#0E1554"/>
<path fill-rule="evenodd" clip-rule="evenodd" d="M264.289 133.2C264.289 133.2 266.381 121.597 267.261 115.515L267.788 116.812L270.409 115.134L271.42 121.009L271.667 129.577L268.51 130.931L267.868 128.435L264.289 133.2Z" fill="#0E1554"/>
<path fill-rule="evenodd" clip-rule="evenodd" d="M232.583 82.4695C232.583 82.4695 235.116 71.3891 236.217 65.5881L236.734 66.8028L239.541 65.1282L240.437 70.6745L240.452 78.8014L237.091 80.1845L236.486 77.8343L232.583 82.4695Z" fill="#0E1554"/>
<path fill-rule="evenodd" clip-rule="evenodd" d="M270.099 115.039C269.978 112.996 268.967 112.495 267.066 113.534C265.166 114.574 264.038 114.609 263.683 113.638L261.309 131.193L264.42 133.831L267.776 132.234L270.099 115.039Z" fill="#0E1554"/>
<path fill-rule="evenodd" clip-rule="evenodd" d="M238.989 65.2535C239.279 63.2288 238.39 62.5192 236.323 63.1246C234.256 63.73 233.146 63.5196 232.992 62.4936L227.166 79.1508L229.683 82.4047L233.285 81.5688L238.989 65.2535Z" fill="#0E1554"/>
<defs>
<linearGradient id="paint0_linear" x1="191.996" y1="209.839" x2="191.996" y2="-0.779372" gradientUnits="userSpaceOnUse">
<stop offset="0.231" stop-color="#FFFDFF"/>
<stop offset="1" stop-color="#F1F7F8"/>
</linearGradient>
<clipPath id="clip0">
<rect width="384" height="212.872" fill="white"/>
</clipPath>
</defs>
</svg>
